<?xml version="1.0" encoding="UTF-8" standalone="no"?> <!-- Created with Vectornator for iOS (http://vectornator.io/) --><!DOCTYPE svg PUBLIC "-//W3C//DTD SVG 1.1//EN" "http://www.w3.org/Graphics/SVG/1.1/DTD/svg11.dtd">
<svg height="100%" style="fill-rule:nonzero;clip-rule:evenodd;stroke-linecap:round;stroke-linejoin:round;" xmlns:xlink="http://www.w3.org/1999/xlink" xmlns="http://www.w3.org/2000/svg" xml:space="preserve" width="100%" xmlns:vectornator="http://vectornator.io" version="1.1" viewBox="0 0 50 50">
<metadata>
<vectornator:setting key="DimensionsVisible" value="1"/>
<vectornator:setting key="PencilOnly" value="0"/>
<vectornator:setting key="SnapToPoints" value="0"/>
<vectornator:setting key="OutlineMode" value="0"/>
<vectornator:setting key="RulersVisible" value="1"/>
<vectornator:setting key="CMYKEnabledKey" value="0"/>
<vectornator:setting key="SnapToEdges" value="0"/>
<vectornator:setting key="GuidesVisible" value="1"/>
<vectornator:setting key="DisplayWhiteBackground" value="0"/>
<vectornator:setting key="doHistoryDisabled" value="0"/>
<vectornator:setting key="SnapToGuides" value="1"/>
<vectornator:setting key="TimeLapseWatermarkDisabled" value="0"/>
<vectornator:setting key="DynamicGuides" value="0"/>
<vectornator:setting key="SnapToGrid" value="0"/>
<vectornator:setting key="IsolateActiveLayer" value="0"/>
<vectornator:setting key="Units" value="Points"/>
</metadata>
<defs/>
<g id="Untitled" vectornator:layerName="Untitled">
<path d="M9+4C6.25048+4+4+6.25048+4+9L4+41C4+43.7495+6.25048+46+9+46L25.832+46C25.94+46.0178+26.0502+46.0178+26.1582+46L31.832+46C31.94+46.0178+32.0502+46.0178+32.1582+46L41+46C43.7495+46+46+43.7495+46+41L46+9C46+6.25048+43.7495+4+41+4L9+4ZM9+6L41+6C42.6685+6+44+7.33152+44+9L44+41C44+42.6685+42.6685+44+41+44L33+44L33+30L36.8203+30L38.2207+23L33+23L33+21C33+20.4425+33.0531+20.3989+33.2402+20.2773C33.4274+20.1558+34.0058+20+35+20L38+20L38+14.3691L37.4297+14.0977C37.4297+14.0977+35.1326+13+32+13C29.75+13+27.9016+13.8965+26.7188+15.375C25.5359+16.8535+25+18.8333+25+21L25+23L22+23L22+30L25+30L25+44L9+44C7.33152+44+6+42.6685+6+41L6+9C6+7.33152+7.33152+6+9+6ZM32+15C34.0791+15+35.3874+15.4585+36+15.7012L36+18L35+18C33.8492+18+32.927+18.0952+32.1504+18.5996C31.3738+19.104+31+20.0615+31+21L31+25L35.7793+25L35.1797+28L31+28L31+44L27+44L27+28L24+28L24+25L27+25L27+21C27+19.1667+27.4641+17.6465+28.2812+16.625C29.0984+15.6035+30.25+15+32+15Z" opacity="1" fill="#ddbea9"/>
</g>
</svg>
