<?xml version="1.0" encoding="UTF-8" standalone="no"?> <!-- Created with Vectornator for iOS (http://vectornator.io/) --><!DOCTYPE svg PUBLIC "-//W3C//DTD SVG 1.1//EN" "http://www.w3.org/Graphics/SVG/1.1/DTD/svg11.dtd">
<svg height="100%" style="fill-rule:nonzero;clip-rule:evenodd;stroke-linecap:round;stroke-linejoin:round;" xmlns:xlink="http://www.w3.org/1999/xlink" xmlns="http://www.w3.org/2000/svg" xml:space="preserve" width="100%" xmlns:vectornator="http://vectornator.io" version="1.1" viewBox="0 0 50 50">
<metadata>
<vectornator:setting key="DimensionsVisible" value="1"/>
<vectornator:setting key="PencilOnly" value="0"/>
<vectornator:setting key="SnapToPoints" value="0"/>
<vectornator:setting key="OutlineMode" value="0"/>
<vectornator:setting key="RulersVisible" value="1"/>
<vectornator:setting key="CMYKEnabledKey" value="0"/>
<vectornator:setting key="SnapToEdges" value="0"/>
<vectornator:setting key="GuidesVisible" value="1"/>
<vectornator:setting key="DisplayWhiteBackground" value="0"/>
<vectornator:setting key="doHistoryDisabled" value="0"/>
<vectornator:setting key="SnapToGuides" value="1"/>
<vectornator:setting key="TimeLapseWatermarkDisabled" value="0"/>
<vectornator:setting key="DynamicGuides" value="0"/>
<vectornator:setting key="SnapToGrid" value="0"/>
<vectornator:setting key="IsolateActiveLayer" value="0"/>
<vectornator:setting key="Units" value="Points"/>
</metadata>
<defs/>
<g id="Untitled" vectornator:layerName="Untitled">
<path d="M34.2188+5.46875C28.2383+5.46875+23.375+10.332+23.375+16.3125C23.375+16.6719+23.4648+17.0234+23.5+17.375C16.1055+16.668+9.56641+13.1055+5.125+7.65625C4.91797+7.39453+4.59766+7.25391+4.26172+7.27734C3.92969+7.30078+3.63281+7.49219+3.46875+7.78125C2.53516+9.38672+2+11.2344+2+13.2188C2+15.6211+2.85938+17.8203+4.1875+19.625C3.92969+19.5117+3.64844+19.4492+3.40625+19.3125C3.09766+19.1484+2.72656+19.1562+2.42578+19.3359C2.125+19.5156+1.94141+19.8398+1.9375+20.1875L1.9375+20.3125C1.9375+23.9961+3.84375+27.1953+6.65625+29.1562C6.625+29.1523+6.59375+29.1641+6.5625+29.1562C6.21875+29.0977+5.87109+29.2188+5.64062+29.4805C5.41016+29.7422+5.33594+30.1055+5.4375+30.4375C6.55469+33.9102+9.40625+36.5625+12.9375+37.5312C10.125+39.2031+6.86328+40.1875+3.34375+40.1875C2.58203+40.1875+1.85156+40.1484+1.125+40.0625C0.65625+40+0.207031+40.2734+0.0507813+40.7188C-0.109375+41.1641+0.0664063+41.6602+0.46875+41.9062C4.98047+44.8008+10.3359+46.5+16.0938+46.5C25.4258+46.5+32.7461+42.6016+37.6562+37.0312C42.5664+31.4609+45.125+24.2266+45.125+17.4688C45.125+17.1836+45.1016+16.9062+45.0938+16.625C46.9258+15.2227+48.5625+13.5781+49.8438+11.6562C50.0977+11.2852+50.0703+10.7891+49.7773+10.4453C49.4883+10.1016+49+9.99609+48.5938+10.1875C48.0781+10.418+47.4766+10.4414+46.9375+10.625C47.6484+9.67578+48.2578+8.65234+48.625+7.5C48.75+7.10547+48.6133+6.67188+48.2891+6.41406C47.9648+6.16016+47.5117+6.12891+47.1562+6.34375C45.4492+7.35547+43.5586+8.06641+41.5625+8.5C39.625+6.6875+37.0742+5.46875+34.2188+5.46875ZM34.2188+7.46875C36.7695+7.46875+39.0742+8.55859+40.6875+10.2812C40.9297+10.5312+41.2852+10.6367+41.625+10.5625C42.9297+10.3047+44.168+9.92578+45.375+9.4375C44.6797+10.375+43.8203+11.1758+42.8125+11.7812C42.3555+12.0039+42.1406+12.5312+42.3086+13.0117C42.4727+13.4883+42.9727+13.7656+43.4688+13.6562C44.4688+13.5352+45.3594+13.1289+46.3125+12.875C45.457+13.8008+44.5195+14.6367+43.5+15.375C43.2227+15.5781+43.0703+15.9062+43.0938+16.25C43.1094+16.6562+43.125+17.0586+43.125+17.4688C43.125+23.7188+40.7266+30.5039+36.1562+35.6875C31.5859+40.8711+24.875+44.5+16.0938+44.5C12.1055+44.5+8.33984+43.6172+4.9375+42.0625C9.15625+41.7383+13.0469+40.2461+16.1875+37.7812C16.5156+37.5195+16.6445+37.082+16.5117+36.6836C16.3789+36.2852+16.0117+36.0117+15.5938+36C12.2969+35.9414+9.53516+34.0234+8.0625+31.3125C8.11719+31.3125+8.16406+31.3125+8.21875+31.3125C9.20703+31.3125+10.1836+31.1875+11.0938+30.9375C11.5312+30.8086+11.832+30.4023+11.8164+29.9453C11.8008+29.4883+11.4766+29.0977+11.0312+29C7.47266+28.2812+4.80469+25.3828+4.1875+21.7812C5.19531+22.1289+6.22656+22.4023+7.34375+22.4375C7.80078+22.4648+8.21484+22.1797+8.35547+21.7461C8.49609+21.3125+8.32422+20.8359+7.9375+20.5938C5.5625+19.0039+4+16.2969+4+13.2188C4+12.0781+4.29688+11.0312+4.6875+10.0312C9.6875+15.5195+16.6875+19.1641+24.5938+19.5625C24.9062+19.5781+25.2109+19.4492+25.4141+19.2109C25.6172+18.9688+25.6953+18.6484+25.625+18.3438C25.4727+17.6953+25.375+17.0078+25.375+16.3125C25.375+11.4141+29.3203+7.46875+34.2188+7.46875Z" opacity="1" fill="#ddbea9"/>
</g>
</svg>
